<?xml version="1.0" encoding="utf-8"?>
<!-- Generator: Adobe Illustrator 24.0.3, SVG Export Plug-In . SVG Version: 6.00 Build 0)  -->
<svg version="1.1" id="Layer_1" xmlns="http://www.w3.org/2000/svg" xmlns:xlink="http://www.w3.org/1999/xlink" x="0px" y="0px"
	 viewBox="0 0 272.19 258.98" style="enable-background:new 0 0 272.19 258.98;" xml:space="preserve">
<style type="text/css">
	.st0{fill:#6BBFB5;}
	.st1{fill:#0465A1;}
	.st2{fill-rule:evenodd;clip-rule:evenodd;fill:#0465A1;}
</style>
<g>
	<path class="st0" d="M136.09,6.18c-68.1,0-123.31,55.21-123.31,123.31c0,68.1,55.21,123.31,123.31,123.31
		c11.12,0,21.89-1.5,32.14-4.26l-21.84-62.26c-2.68,0.45-4.5,0.62-4.73,0.64c-1.02,0.09-2.04-0.24-2.9-0.86
		c-1.22-0.86-2.16-2.31-2.46-4c-0.51-2.9,1.07-5.42,3.52-5.63c0.04,0,1.2-0.12,2.98-0.39l-0.36-1.03c-1.8-5.13-0.69-10.4,2.41-13.42
		l-2.9-8.02c-18.76,8.6-24.1,43.89-24.15,44.26c-0.32,2.17-2.13,3.39-4.05,2.75c-0.35-0.12-0.68-0.29-0.99-0.5
		c-1.36-0.97-2.19-2.82-1.94-4.6c0.25-1.71,6.1-40.07,28.3-49.77l-0.12-0.34c-27.94,13.81-39.05,47.07-39.16,47.42
		c-0.65,2.01-2.67,2.82-4.5,1.79c-0.13-0.07-0.25-0.15-0.37-0.23c-1.59-1.14-2.38-3.4-1.77-5.27c0.5-1.56,12.31-36.87,42.97-51.58
		l-0.09-0.24c-21.77,6.38-35.47,17.48-43.13,25.89c-8.68,9.52-11.85,17.68-11.88,17.76c-0.74,1.95-2.81,2.64-4.6,1.52
		c-0.07-0.04-0.14-0.09-0.21-0.14c-1.66-1.17-2.43-3.55-1.72-5.43c0.53-1.42,13.36-34.08,58.69-47.47l-0.07-0.21
		c-52.9,1.16-66.6,34.54-66.73,34.88c-0.76,1.95-2.84,2.61-4.63,1.46c-0.06-0.04-0.12-0.07-0.17-0.12c-1.68-1.19-2.44-3.6-1.7-5.48
		c0.16-0.41,4.06-10.15,15.37-19.79c9.63-8.21,26.69-17.9,54.2-19.07c-0.01-0.04-0.01-0.09-0.01-0.14
		c-39.93-7.85-71.64,14.87-71.96,15.1c-1.1,0.81-2.53,0.71-3.7-0.12c-0.48-0.34-0.91-0.79-1.25-1.37c-1.18-1.95-0.89-4.46,0.66-5.58
		c0.36-0.27,8.96-6.5,22.99-11.55c11.39-4.11,28.4-8.07,47.84-5.48c-35.29-15.43-57.95-5.22-58.19-5.12
		c-1.04,0.49-2.23,0.29-3.23-0.41c-0.64-0.45-1.19-1.12-1.56-1.94c-0.93-2.1-0.3-4.47,1.41-5.29c1.04-0.5,24.38-11.22,61.35,4.28
		l-0.14-0.38c-23.09-17.32-42.17-19.3-42.37-19.33c-0.62-0.06-1.2-0.3-1.72-0.66c-1.12-0.8-1.92-2.21-1.98-3.75
		c-0.09-2.25,1.41-3.93,3.36-3.75c0.81,0.08,17.21,1.82,38.39,15.5l-0.3-0.81c-0.04-0.04-0.08-0.06-0.12-0.1
		c-0.12-0.12-12.04-12.46-21.57-18.06c-1.81-1.07-2.73-3.55-2.03-5.54c0.7-2,2.74-2.74,4.56-1.66c4.6,2.71,9.57,6.69,13.73,10.35
		l-3.99-11.05c-0.79-2.18,0.03-4.45,1.81-5.08c1.79-0.63,3.87,0.61,4.65,2.78l4.52,12.51c1.61-10.93,5.24-20.19,5.48-20.78
		c0.77-1.95,2.85-2.58,4.64-1.42c1.79,1.17,2.61,3.67,1.84,5.61c-0.08,0.19-6.98,17.74-5.46,31.26
		c5.74-20.93,17.54-35.08,18.15-35.8c1.28-1.51,3.51-1.36,4.98,0.32c1.48,1.69,1.64,4.27,0.37,5.77
		c-0.16,0.2-14.56,17.55-18.51,41.23c0.06,0.07,0.13,0.14,0.19,0.22c15.64-32.28,42.92-41.48,44.19-41.89
		c1.81-0.58,3.87,0.73,4.6,2.91c0.74,2.18-0.12,4.42-1.92,5.01c-0.3,0.09-27.74,9.37-41.97,41.5
		c12.67-15.68,27.42-23.49,38.38-27.32c14.27-4.99,25.18-4.6,25.64-4.58c1.95,0.09,3.66,1.98,3.85,4.24
		c0.18,2.26-1.25,4.01-3.18,3.94c-0.15-0.01-10.49-0.34-23.74,4.35c-11.04,3.9-26.23,12.16-38.59,29.4
		c8.97-7.93,28.82-20.68,61.75-17.57c1.96,0.18,3.6,2.15,3.7,4.4c0.1,2.26-1.4,3.93-3.35,3.75c-29.56-2.78-47.87,8.23-56.43,15.39
		c4.01-1.53,9.12-3.16,15.23-4.35c13.78-2.69,35.08-3.54,58.31,7.72c1.87,0.92,2.95,3.32,2.4,5.39c-0.54,2.08-2.51,3.01-4.38,2.1
		c-21.47-10.4-41.26-9.64-54.07-7.18c-9.48,1.82-16.65,4.83-20.33,6.59l0.08,0.23c7.52-2.13,29.38-5.3,66.95,12.65
		c1.87,0.9,2.96,3.31,2.42,5.38c-0.53,2.08-2.49,3.03-4.36,2.14c-35.29-16.86-55.54-14.07-62.17-12.3l0.14,0.4
		c7.18-2.08,24.47-2.72,54.48,20.77c1.7,1.33,2.33,3.9,1.38,5.72c-0.94,1.82-3.08,2.21-4.8,0.87
		c-27.63-21.62-42.71-20.95-48.23-19.49l2.93,8.11c4.63,0.12,9.22,3.67,11.14,9.12l0.32,0.92c0.32-0.24,0.66-0.48,0.95-0.72
		c1.89-1.61,4.76-0.95,6.41,1.47c1.64,2.41,1.44,5.68-0.45,7.29c-1,0.85-2.11,1.61-3.27,2.33l21.68,61.8
		c42.14-19.61,71.37-62.3,71.37-111.84C259.4,61.39,204.19,6.18,136.09,6.18z M105.41,223.1c2.5,0.68,4.31,3.52,4.05,6.34
		c-0.27,2.82-2.51,4.57-4.99,3.9c-15.45-4.18-27.8-10.5-37.6-17.45c-10.82-7.67-18.53-16.13-23.82-23.35
		c-11.1-15.16-14.35-28.31-14.49-28.86c-0.69-2.88,0.71-5.56,3.11-5.99c2.4-0.43,4.91,1.53,5.61,4.4
		c0.04,0.16,2.96,11.62,12.72,24.74C63.13,204.5,81.77,216.71,105.41,223.1z M203.39,49.83c-26.85-21.5-58.55-27.11-94.23-16.67
		C73.26,43.66,49.49,65.6,38.52,98.35c-8.14,24.3-5.83,45.53-5.81,45.74c0.33,2.9-1.41,5.27-3.89,5.29c-0.92,0-1.82-0.32-2.59-0.87
		c-1.33-0.93-2.31-2.54-2.52-4.37c-0.11-0.97-2.62-24.07,6.29-50.66c5.22-15.59,13.32-29.17,24.06-40.34
		c13.34-13.88,30.78-24.04,51.85-30.19c21.09-6.18,41.31-6.99,60.08-2.44c15.15,3.67,29.38,10.83,42.29,21.25
		c21.98,17.76,32.43,38.74,32.87,39.62c1.3,2.65,0.62,5.76-1.52,6.94c-2.14,1.17-4.93-0.01-6.23-2.67
		C233.29,85.44,223.5,65.92,203.39,49.83z M229.59,188.81c-1.38,1.66-3.65,1.81-5.48,0.52c-0.32-0.24-0.63-0.51-0.93-0.84
		c-1.92-2.14-2.16-5.46-0.56-7.44c0.08-0.08,6.49-8.07,11.65-21.97c6.86-18.44,8.38-38.05,4.53-58.26c-0.55-2.9,0.99-5.46,3.43-5.73
		c2.44-0.26,4.88,1.87,5.43,4.76c5.35,28.07,0.17,50.71-5.1,64.76C236.85,179.84,229.88,188.44,229.59,188.81z"/>
</g>
</svg>
